<svg xmlns="http://www.w3.org/2000/svg" width="256" height="256"><path fill="#1976D2" fill-opacity=".008" fill-rule="evenodd" d="M0 128.004v128.004l128.25-.254 128.25-.254.254-127.75L257.008 0H0zm.485.496c0 70.4.119 99.053.265 63.672s.146-92.98 0-128S.485 58.1.485 128.5"/><path fill="#1976D2" fill-opacity=".348" fill-rule="evenodd" d="M105.922 1.492C54.214 11.264 15.946 47.782 2.693 100 .847 107.271.535 111.319.535 128s.312 20.729 2.158 28c3.328 13.112 7.921 24.909 13.485 34.633C34.659 222.934 62.579 243.81 100 253.307c7.271 1.846 11.319 2.158 28 2.158s20.729-.312 28-2.158c50.006-12.692 85.337-47.928 97.066-96.807 1.056-4.4 1.923-9.211 1.927-10.691s.457-2.969 1.007-3.309c.595-.368 1-6.697 1-15.618 0-9.745-.35-14.784-1-14.382-.576.356-1.003-.574-1.007-2.191-.004-1.545-.871-6.409-1.927-10.809-11.679-48.67-47.127-84.157-96.566-96.672-10.644-2.694-39.376-3.453-50.578-1.336M.402 128c0 8.525.154 12.012.341 7.75s.188-11.237 0-15.5c-.187-4.263-.341-.775-.341 7.75"/><path fill="#1976D2" fill-opacity=".739" fill-rule="evenodd" d="M113 1.018C83.941 5.062 59.995 16.376 40.15 35.44 20.815 54.014 8.41 76.177 2.896 102c-3.169 14.842-3.169 37.158 0 52 10.684 50.038 49.082 88.415 99.17 99.116 14.744 3.15 37.124 3.15 51.868 0 42.532-9.086 77.317-38.447 92.958-78.462 4-10.231 8.108-27.46 8.108-34.002 0-1.944.45-3.812 1-4.152s1-4.668 1-9.618c0-5.745-.362-8.777-1-8.382-.597.369-1-.854-1-3.034 0-6.649-4.079-23.814-8.108-34.12-15.656-40.053-50.933-69.79-92.958-78.361C142.143.58 122.818-.349 113 1.018M.36 128c0 5.225.169 7.363.375 4.75s.206-6.888 0-9.5S.36 122.775.36 128"/><path fill="#1976D2" fill-opacity=".466" fill-rule="evenodd" d="M117 1.047C96.566 2.86 75.015 10.36 57.973 21.587 22.117 45.209.772 84.918.772 128c0 70.606 56.597 127.184 127.228 127.184 43.925 0 83.794-21.855 107.701-59.037C246.33 179.616 255 152.796 255 136.449c0-2.932.45-5.609 1-5.949s1-1.968 1-3.618c0-1.745-.418-2.742-1-2.382-.62.383-1-1.453-1-4.831 0-7.055-2.429-20.068-5.63-30.169-8.82-27.825-27.006-51.88-51.343-67.913C174.75 6.252 144.567-1.399 117 1.047m-3.009 94.152c-2.9 1.073-3.955 2.531-3.976 5.494-.032 4.598 8.067 7.084 11.33 3.478 4.472-4.941-.815-11.391-7.354-8.972M52 97.313c0 .173 4.5 13.329 10 29.237s10 29.063 10 29.234 2.813.177 6.25.014l6.25-.298 2.833-8c1.558-4.4 6.152-17.562 10.208-29.25L104.916 97h-6.483c-7.694 0-6.204-2.601-14.167 24.738-3.1 10.643-5.942 18.769-6.316 18.057s-2.355-6.92-4.403-13.795-4.835-16.213-6.195-20.75L64.879 97h-6.44c-3.541 0-6.439.141-6.439.313m95.226 15.691c-3.925 2.392-4.226 2.428-4.226.496 0-1.152-1.279-1.5-5.515-1.5h-5.514l.264 30.25.265 30.25h11l.285-10.295.286-10.294 2.599 2.044c3.709 2.918 11.901 2.815 16.345-.205 5.765-3.918 7.485-8.702 7.485-20.825 0-9.776-.201-10.878-2.661-14.593-4.648-7.022-13.909-9.416-20.613-5.328m46.484.418c-3.506 2.379-3.71 2.409-3.71.548 0-1.721-.695-1.97-5.5-1.97H179v44h11v-29.855l2.635-2.072c1.621-1.276 4.104-2.073 6.455-2.073 3.552 0 3.864-.238 4.457-3.4 1.011-5.388.31-7.063-3.095-7.398-1.97-.193-4.332.585-6.742 2.22M111 134v22h11v-44h-11zm35.223-12.443c-2.052 1.437-2.223 2.347-2.223 11.845 0 11.084.652 12.62 5.903 13.903 5.932 1.451 10.097-4.112 10.097-13.486 0-11.103-6.796-17.152-13.777-12.262M.232 128c0 1.925.206 2.713.457 1.75.252-.963.252-2.537 0-3.5-.251-.963-.457-.175-.457 1.75"/></svg>