<svg xmlns="http://www.w3.org/2000/svg" width="256" height="256"><path fill="#1976D2" fill-opacity=".016" fill-rule="evenodd" d="M0 128.004v128.004l128.25-.254 128.25-.254.254-127.75L257.008 0H0zm.485.496c0 70.4.119 99.053.265 63.672s.146-92.98 0-128S.485 58.1.485 128.5"/><path fill="#1976D2" fill-opacity=".247" fill-rule="evenodd" d="M111 .894c-.825.486-3.975 1.209-7 1.607-14.603 1.922-37.764 12.111-52.092 22.916-16.693 12.589-31.513 30.737-39.765 48.697C3.195 93.59.645 105.65.645 128.5c0 24.08 2.721 36.077 12.927 57 12.409 25.438 35.065 47.651 60.542 59.357 18.71 8.596 31.13 11.14 54.386 11.14 17.071 0 28.352-1.467 39.472-5.134 44.02-14.518 77.468-52.112 86.679-97.424 1.865-9.176 3-40.932 1.528-42.756-.525-.651-1.281-3.658-1.679-6.683-1.924-14.605-12.112-37.764-22.917-52.092C212.34 26.391 184.51 8.732 153.439 2.326 144.595.502 113.452-.549 111 .894M.409 128.5c-.001 9.35.149 13.31.334 8.799.185-4.51.186-12.16.002-17C.562 115.46.41 119.15.409 128.5"/><path fill="#1976D2" fill-opacity=".772" fill-rule="evenodd" d="M117.5 1c-.34.55-2.55 1-4.911 1-5.897 0-23.258 4.506-32.692 8.484-38.169 16.098-65.218 47.534-75.3 87.513C3.169 103.661 2 110.228 2 112.589s-.45 4.571-1 4.911c-.563.348-1 5.157-1 11s.437 10.652 1 11c.55.34 1 2.55 1 4.911 0 5.897 4.506 23.258 8.484 32.692 16.189 38.384 47.259 65.006 88.152 75.53 10.033 2.582 12.318 2.796 29.864 2.796s19.831-.214 29.864-2.796c51.978-13.377 89.262-54.57 96.807-106.956 1.598-11.094 2.145-28.677.891-28.677-.587 0-1.062-1.947-1.062-4.352 0-2.394-1.169-8.987-2.597-14.651-10.082-39.979-37.131-71.415-75.3-87.513C167.669 6.506 150.308 2 144.411 2c-2.361 0-4.571-.45-4.911-1-.812-1.314-21.188-1.314-22 0M.374 128.5c.002 6.05.167 8.396.366 5.213.199-3.182.197-8.132-.004-11-.201-2.867-.364-.263-.362 5.787"/><path fill="#1976D2" fill-opacity=".466" fill-rule="evenodd" d="M124.45.922c-.523.507-4.1 1.133-7.95 1.39-7.853.526-23.418 3.403-24.98 4.619-.561.436-2.363 1.115-4.004 1.509-1.642.394-5.367 1.806-8.28 3.138S73.769 14 73.558 14c-.21 0-3.684 1.884-7.72 4.187-19.455 11.099-36.463 28.068-47.441 47.328C15.979 69.758 14 73.39 14 73.585s-1.072 2.732-2.383 5.635c-1.31 2.904-2.688 6.405-3.063 7.78-.374 1.375-1.088 3.4-1.586 4.5-1.534 3.384-4.195 17.623-4.671 25-.249 3.85-.868 7.427-1.375 7.95-1.194 1.23-1.194 6.87 0 8.1.507.522 1.126 4.1 1.375 7.95.476 7.377 3.137 21.616 4.671 25 .498 1.1 1.212 3.125 1.586 4.5s1.753 4.876 3.063 7.78S14 183.219 14 183.415s1.979 3.827 4.397 8.07c10.978 19.26 27.986 36.229 47.441 47.328 4.036 2.303 7.51 4.187 7.72 4.187.211 0 2.766 1.09 5.678 2.422s6.638 2.744 8.28 3.138 3.443 1.073 4.004 1.509c1.564 1.217 16.87 3.971 27.48 4.944 5.392.494 13.608.495 19 .001 10.6-.97 25.914-3.726 27.48-4.945.561-.436 2.363-1.115 4.004-1.509 1.642-.394 5.367-1.806 8.28-3.138s5.467-2.422 5.678-2.422c.21 0 3.684-1.884 7.72-4.187 19.455-11.099 36.463-28.068 47.441-47.328 2.418-4.243 4.397-7.875 4.397-8.07s1.072-2.732 2.383-5.635c1.31-2.904 2.688-6.405 3.063-7.78.374-1.375 1.088-3.4 1.586-4.5 1.296-2.859 4.03-16.707 5.033-25.5.471-4.125 1.147-9.412 1.501-11.75.403-2.657.26-4.25-.382-4.25-.566 0-1.228-3.253-1.475-7.25-.468-7.543-3.105-21.783-4.677-25.25-.498-1.1-1.212-3.125-1.586-4.5s-1.753-4.876-3.063-7.78S243 73.781 243 73.585s-1.979-3.827-4.397-8.07c-10.978-19.26-27.986-36.229-47.441-47.328-4.036-2.303-7.51-4.187-7.72-4.187-.211 0-2.766-1.09-5.678-2.422s-6.638-2.744-8.28-3.138-3.443-1.073-4.004-1.509c-1.562-1.216-17.127-4.093-24.98-4.619-3.85-.257-7.428-.883-7.95-1.39-1.23-1.194-6.87-1.194-8.1 0m-11.227 95.635C108.635 99.77 111.644 107 117.568 107c2.812 0 5.432-3.024 5.432-6.272 0-2.715-3.156-5.728-6-5.728-.855 0-2.555.701-3.777 1.557m-59.724 3.693c.348 1.237 2.403 7.313 4.567 13.5a34722 34722 0 0 1 8.032 23c6.001 17.208 6.331 18.045 7.152 18.152.412.054 3.394.098 6.625.098 5.762 0 5.887-.059 6.491-3.08.339-1.694 1.266-4.506 2.061-6.25s2.814-7.22 4.487-12.17 5.064-14.625 7.536-21.5 4.506-12.838 4.522-13.25c.015-.412-2.807-.75-6.272-.75h-6.299l-6.367 21.044c-3.502 11.574-6.685 21.24-7.074 21.481-.389.24-1.835-3.492-3.213-8.294a2013 2013 0 0 0-5.508-18.731c-1.651-5.5-3.289-11.237-3.639-12.75-.616-2.655-.864-2.75-7.186-2.75-6.312 0-6.526.081-5.915 2.25m93.721 13.757c-2.809 1.713-3.363 1.784-3.857.497-.405-1.055-2.038-1.504-5.47-1.504H133v59h11v-9.5c0-5.225.247-9.5.55-9.5.302 0 1.951.725 3.663 1.61 2.186 1.13 4.766 1.474 8.653 1.151 5.002-.415 5.9-.867 9.279-4.674 7.218-8.133 7.557-25.733.658-34.183-4.017-4.921-13.872-6.379-19.583-2.897m36.53-1.202-4.75.305V155h12v-14.345c0-16.529.533-17.701 8.174-17.991l4.326-.164v-5c0-4.919-.053-5.005-3.278-5.315-2.408-.232-4.132.404-6.5 2.397-2.961 2.494-3.25 2.56-3.569.816-.493-2.698-1.079-2.935-6.403-2.593M111 134v21h12v-42h-12zm37-12.248-3.5 1.748-.284 10.151c-.278 9.957-.233 10.191 2.385 12.25 3.17 2.493 6.138 2.671 9.169.548 2.903-2.034 3.929-4.079 4.726-9.423.963-6.455-1.099-12.813-4.908-15.135-3.746-2.285-3.31-2.277-7.588-.139M.252 128.5c.011 2.2.216 2.982.455 1.738s.23-3.044-.02-4-.446.062-.435 2.262"/></svg>